<svg width="742" height="209" viewBox="0 0 742 209" fill="none" xmlns="http://www.w3.org/2000/svg">
<path fill-rule="evenodd" clip-rule="evenodd" d="M3.0729 3.6267C1.12156 6.14665 0 10.0252 0 15.0651V194.332C0 199.372 1.12156 203.251 3.14584 205.683L3.67471 206.22L87.2721 105.772V103.515L3.60176 3.08984L3.0729 3.6267Z" fill="url(#paint0_linear_70_6)"/>
<path fill-rule="evenodd" clip-rule="evenodd" d="M115.082 139.387L87.1982 105.872V103.527L115.091 70.0117L115.693 70.4609L148.684 92.9871C158.13 99.3856 158.13 109.926 148.684 116.412L115.693 138.938C115.684 138.938 115.082 139.387 115.082 139.387Z" fill="url(#paint1_linear_70_6)"/>
<path fill-rule="evenodd" clip-rule="evenodd" d="M115.686 138.934L87.2005 104.695L3.07422 205.778C6.14712 209.744 11.3172 210.194 17.0983 206.315L115.686 138.934Z" fill="url(#paint2_linear_70_6)"/>
<path fill-rule="evenodd" clip-rule="evenodd" d="M115.686 70.4666L17.0983 3.17292C11.3264 -0.793267 6.14712 -0.256407 3.07422 3.70978L87.1913 104.694L115.686 70.4666Z" fill="url(#paint3_linear_70_6)"/>
<path opacity="0.2" fill-rule="evenodd" clip-rule="evenodd" d="M115.084 138.211L17.1706 205.055C11.6995 208.835 6.82119 208.572 3.67535 205.143L3.14648 205.779L3.67535 206.315C6.82119 209.734 11.6995 210.008 17.1706 206.228L115.759 138.934L115.084 138.211Z" fill="black"/>
<path opacity="0.12" fill-rule="evenodd" clip-rule="evenodd" d="M148.674 115.235L115.009 138.211L115.611 138.934L148.601 116.408C153.324 113.165 155.649 108.935 155.649 104.695C155.349 108.574 152.95 112.266 148.674 115.235Z" fill="black"/>
<path opacity="0.25" fill-rule="evenodd" clip-rule="evenodd" d="M17.097 4.34723L148.675 94.1671C152.952 97.0486 155.35 100.829 155.724 104.707C155.724 100.478 153.399 96.2378 148.675 92.9947L17.097 3.17491C7.65033 -3.31123 0 2.09023 0 15.0625V16.2348C0 3.26256 7.65033 -2.05125 17.097 4.34723Z" fill="white"/>
<path fill-rule="evenodd" clip-rule="evenodd" d="M187.839 99.0113C187.839 70.2948 207.926 46.9141 231.826 46.9141C245.038 46.9141 254.439 53.1482 261.533 61.2668L253.181 71.3028C248.111 65.5836 241.236 61.1463 231.817 61.1463C214.364 61.1463 200.723 78.03 200.723 99.0004C200.723 119.971 214.364 136.876 231.807 136.876C243.123 136.876 249.561 131.42 253.692 126.446C257.074 122.381 259.29 116.541 260.147 108.532H231.826V94.333H271.691C272.111 96.8748 272.33 99.9207 272.33 103.219C272.33 113.879 269.895 127.103 262.062 136.515C254.439 146.047 244.719 151.13 231.817 151.13C207.908 151.13 187.82 127.772 187.82 99.0332L187.839 99.0113ZM304.554 84.0231C289.116 84.0231 276.515 98.1348 276.515 117.56C276.515 136.887 289.107 151.098 304.554 151.098C320 151.098 332.575 136.865 332.575 117.549C332.575 98.1239 319.991 84.0121 304.554 84.0231ZM304.554 137.906C296.101 137.906 288.797 129.525 288.797 117.571C288.797 105.497 296.092 97.2364 304.554 97.2364C313.007 97.2364 320.301 105.486 320.301 117.571C320.301 129.514 313.016 137.906 304.554 137.906ZM365.693 84.0231C350.255 84.0231 337.672 98.1348 337.672 117.56C337.672 136.887 350.255 151.098 365.693 151.098C381.13 151.098 393.713 136.865 393.713 117.549C393.713 98.1239 381.139 84.0121 365.693 84.0231ZM365.693 137.906C357.24 137.906 349.936 129.525 349.936 117.571C349.936 105.497 357.231 97.2364 365.693 97.2364C374.145 97.2364 381.449 105.486 381.449 117.571C381.449 129.514 374.145 137.906 365.693 137.906ZM440.728 86.061V91.5172H440.308C437.564 87.562 432.275 84.0121 425.619 84.0121C411.658 84.0121 398.847 98.7593 398.847 117.703C398.847 136.493 411.649 151.12 425.619 151.12C432.275 151.12 437.564 147.57 440.308 143.505H440.728V148.326C440.728 161.156 435.02 168.025 425.819 168.025C418.306 168.025 413.655 161.539 411.75 156.094L401.063 161.429C404.127 170.315 412.279 181.249 425.81 181.249C440.181 181.249 452.345 171.071 452.345 146.299V86.05L440.728 86.061ZM426.667 137.906C418.215 137.906 411.111 129.382 411.111 117.703C411.111 105.892 418.205 97.2474 426.667 97.2474C435.02 97.2474 441.576 105.881 441.576 117.703C441.585 129.382 435.029 137.906 426.667 137.906ZM460.816 50.4749H473.089V149.082H460.816V50.4749ZM506.727 137.906C500.49 137.906 496.04 134.466 493.204 127.75L530.535 109.179L529.249 105.366C526.933 97.8828 519.839 84.0231 505.35 84.0231C490.97 84.0231 479.016 97.6199 479.016 117.571C479.016 136.361 490.861 151.109 506.727 151.109C519.529 151.109 526.933 141.719 529.997 136.241L520.477 128.626C517.295 134.225 512.955 137.917 506.727 137.906ZM505.769 96.9844C510.629 96.9844 514.751 99.9097 516.128 104.095L491.162 116.552C490.852 103.591 499.523 96.9844 505.769 96.9844ZM584.388 50.4749H555.045V149.082H567.291V111.732H584.397C597.975 111.732 611.324 99.9207 611.324 81.0977C611.324 62.3077 597.984 50.4858 584.415 50.4858L584.388 50.4749ZM584.707 98.0033H567.291V64.1922H584.707C593.862 64.1922 599.078 73.3188 599.078 81.0977C599.078 88.7453 593.862 98.0033 584.707 98.0033ZM630.317 149.082V50.4749H618.071V149.082H630.317ZM685.329 148.906V111.107C685.329 93.5989 674.441 83.8368 660.39 83.8368C651.536 83.8368 642.354 88.5371 638.551 98.9346L649.42 104.38C651.746 98.9346 656.068 97.1487 660.618 97.1487C666.946 97.1487 673.384 101.718 673.484 109.847V110.866C671.268 109.343 666.526 107.053 660.709 107.053C648.992 107.053 637.065 114.788 637.065 129.251C637.065 142.453 646.676 150.944 657.445 150.944C665.688 150.944 670.219 146.507 673.064 141.314H673.484V148.928H685.32L685.329 148.906ZM658.931 137.884C654.919 137.884 649.32 135.474 649.32 129.525C649.32 121.91 656.296 118.974 662.314 118.974C667.703 118.974 670.229 120.365 673.511 122.272C672.572 131.124 666.344 137.775 658.931 137.884ZM728.395 85.9952L714.352 128.736H713.933L699.362 85.9952H686.168L708.015 145.751L695.55 178.981H708.325L741.999 85.9952H728.395Z" fill="#808285"/>
<defs>
<linearGradient id="paint0_linear_70_6" x1="79.7654" y1="13.1382" x2="-56.9282" y2="43.4505" gradientUnits="userSpaceOnUse">
<stop stop-color="#00A0FF"/>
<stop offset="0.007" stop-color="#00A1FF"/>
<stop offset="0.26" stop-color="#00BEFF"/>
<stop offset="0.512" stop-color="#00D2FF"/>
<stop offset="0.76" stop-color="#00DFFF"/>
<stop offset="1" stop-color="#00E3FF"/>
</linearGradient>
<linearGradient id="paint1_linear_70_6" x1="160.976" y1="104.704" x2="-2.29681" y2="104.704" gradientUnits="userSpaceOnUse">
<stop stop-color="#FFE000"/>
<stop offset="0.409" stop-color="#FFBD00"/>
<stop offset="0.775" stop-color="#FFA500"/>
<stop offset="1" stop-color="#FF9C00"/>
</linearGradient>
<linearGradient id="paint2_linear_70_6" x1="100.197" y1="123.321" x2="-38.9049" y2="318.165" gradientUnits="userSpaceOnUse">
<stop stop-color="#FF3A44"/>
<stop offset="1" stop-color="#C31162"/>
</linearGradient>
<linearGradient id="paint3_linear_70_6" x1="-18.1024" y1="-56.0109" x2="43.9653" y2="31.0239" gradientUnits="userSpaceOnUse">
<stop stop-color="#32A071"/>
<stop offset="0.069" stop-color="#2DA771"/>
<stop offset="0.476" stop-color="#15CF74"/>
<stop offset="0.801" stop-color="#06E775"/>
<stop offset="1" stop-color="#00F076"/>
</linearGradient>
</defs>
</svg>
