<svg width="1106" height="510" viewBox="0 0 1106 510" fill="none" xmlns="http://www.w3.org/2000/svg">
<path fill-rule="evenodd" clip-rule="evenodd" d="M4.58036 8.28271C1.67176 14.4686 0 23.9895 0 36.3612V476.419C0 488.791 1.67176 498.312 4.68909 504.283L5.4774 505.601L130.085 259.026V253.486L5.36867 6.96484L4.58036 8.28271Z" fill="url(#paint0_linear_70_6)"/>
<path fill-rule="evenodd" clip-rule="evenodd" d="M171.538 341.542L129.975 259.27V253.514L171.551 171.242L172.448 172.345L221.623 227.641C235.703 243.348 235.703 269.221 221.623 285.143L172.448 340.439C172.435 340.439 171.538 341.542 171.538 341.542Z" fill="url(#paint1_linear_70_6)"/>
<path fill-rule="evenodd" clip-rule="evenodd" d="M172.438 340.43L129.978 256.383L4.58203 504.517C9.16239 514.253 16.8688 515.356 25.4859 505.835L172.438 340.43Z" fill="url(#paint2_linear_70_6)"/>
<path fill-rule="evenodd" clip-rule="evenodd" d="M172.438 172.358L25.4859 7.16863C16.8824 -2.56741 9.16239 -1.24955 4.58203 8.48649L129.964 256.379L172.438 172.358Z" fill="url(#paint3_linear_70_6)"/>
<path opacity="0.2" fill-rule="evenodd" clip-rule="evenodd" d="M171.54 338.656L25.5933 502.743C17.4383 512.022 10.1669 511.377 5.47776 502.959L4.68945 504.519L5.47776 505.836C10.1669 514.228 17.4383 514.9 25.5933 505.621L172.545 340.431L171.54 338.656Z" fill="black"/>
<path opacity="0.12" fill-rule="evenodd" clip-rule="evenodd" d="M221.608 282.256L171.428 338.655L172.325 340.43L221.499 285.134C228.539 277.173 232.005 266.791 232.005 256.383C231.557 265.904 227.982 274.967 221.608 282.256Z" fill="black"/>
<path opacity="0.25" fill-rule="evenodd" clip-rule="evenodd" d="M25.4842 10.052L221.611 230.538C227.985 237.612 231.56 246.891 232.117 256.411C232.117 246.03 228.651 235.621 221.611 227.661L25.4842 7.17423C11.4033 -8.74769 0 4.51161 0 36.3554V39.2332C0 7.38939 11.4033 -5.65475 25.4842 10.052Z" fill="white"/>
<path fill-rule="evenodd" clip-rule="evenodd" d="M279.986 242.429C279.986 171.937 309.928 114.543 345.552 114.543C365.246 114.543 379.259 129.846 389.833 149.776L377.383 174.412C369.826 160.372 359.578 149.48 345.538 149.48C319.524 149.48 299.191 190.925 299.191 242.402C299.191 293.88 319.524 335.379 345.525 335.379C362.392 335.379 371.987 321.985 378.144 309.775C383.187 299.797 386.49 285.462 387.767 265.801H345.552V230.945H404.974C405.599 237.185 405.926 244.662 405.926 252.757C405.926 278.926 402.297 311.388 390.622 334.491C379.259 357.89 364.77 370.369 345.538 370.369C309.901 370.369 279.959 313.029 279.959 242.483L279.986 242.429ZM453.958 205.637C430.948 205.637 412.164 240.278 412.164 287.963C412.164 335.406 430.934 370.289 453.958 370.289C476.982 370.289 495.725 335.352 495.725 287.936C495.725 240.251 476.969 205.61 453.958 205.637ZM453.958 337.907C441.359 337.907 430.472 317.332 430.472 287.99C430.472 258.351 441.345 238.072 453.958 238.072C466.558 238.072 477.431 258.324 477.431 287.99C477.431 317.305 466.571 337.907 453.958 337.907ZM545.09 205.637C522.079 205.637 503.323 240.278 503.323 287.963C503.323 335.406 522.079 370.289 545.09 370.289C568.1 370.289 586.857 335.352 586.857 287.936C586.857 240.251 568.114 205.61 545.09 205.637ZM545.09 337.907C532.49 337.907 521.603 317.332 521.603 287.99C521.603 258.351 532.477 238.072 545.09 238.072C557.689 238.072 568.576 258.324 568.576 287.99C568.576 317.305 557.689 337.907 545.09 337.907ZM656.935 210.639V224.033H656.31C652.218 214.324 644.335 205.61 634.414 205.61C613.605 205.61 594.509 241.811 594.509 288.312C594.509 334.438 613.591 370.343 634.414 370.343C644.335 370.343 652.218 361.629 656.31 351.65H656.935V363.484C656.935 394.978 648.426 411.842 634.713 411.842C623.513 411.842 616.581 395.92 613.741 382.553L597.811 395.651C602.378 417.463 614.529 444.304 634.699 444.304C656.119 444.304 674.25 419.319 674.25 358.509V210.612L656.935 210.639ZM635.977 337.907C623.377 337.907 612.789 316.983 612.789 288.312C612.789 259.319 623.364 238.099 635.977 238.099C648.426 238.099 658.199 259.293 658.199 288.312C658.212 316.983 648.44 337.907 635.977 337.907ZM686.877 123.284H705.171V365.34H686.877V123.284ZM755.311 337.907C746.014 337.907 739.381 329.462 735.154 312.975L790.798 267.388L788.882 258.028C785.429 239.659 774.855 205.637 753.258 205.637C731.824 205.637 714.006 239.014 714.006 287.99C714.006 334.115 731.661 370.316 755.311 370.316C774.393 370.316 785.429 347.267 789.996 333.819L775.807 315.127C771.063 328.87 764.594 337.934 755.311 337.907ZM753.883 237.454C761.128 237.454 767.271 244.635 769.323 254.909L732.11 285.488C731.648 253.671 744.573 237.454 753.883 237.454ZM871.07 123.284H827.332V365.34H845.586V273.655H871.084C891.321 273.655 911.219 244.662 911.219 198.456C911.219 152.331 891.335 123.311 871.111 123.311L871.07 123.284ZM871.546 239.955H845.586V156.957H871.546C885.192 156.957 892.966 179.36 892.966 198.456C892.966 217.229 885.192 239.955 871.546 239.955ZM939.531 365.34V123.284H921.277V365.34H939.531ZM1021.53 364.91V272.122C1021.53 229.143 1005.3 205.18 984.356 205.18C971.158 205.18 957.471 216.718 951.804 242.241L968.005 255.608C971.471 242.241 977.913 237.857 984.695 237.857C994.128 237.857 1003.72 249.072 1003.87 269.029V271.53C1000.57 267.791 993.503 262.17 984.831 262.17C967.366 262.17 949.588 281.158 949.588 316.66C949.588 349.069 963.914 369.912 979.966 369.912C992.252 369.912 999.007 359.02 1003.25 346.271H1003.87V364.964H1021.52L1021.53 364.91ZM982.181 337.853C976.201 337.853 967.856 331.936 967.856 317.332C967.856 298.64 978.253 291.432 987.224 291.432C995.256 291.432 999.021 294.848 1003.91 299.528C1002.51 321.259 993.231 337.584 982.181 337.853ZM1085.72 210.478L1064.79 315.396H1064.17L1042.45 210.478H1022.78L1055.34 357.164L1036.76 438.737H1055.81L1106 210.478H1085.72Z" fill="#808285"/>
<defs>
<linearGradient id="paint0_linear_70_6" x1="118.896" y1="31.631" x2="-91.0679" y2="59.9031" gradientUnits="userSpaceOnUse">
<stop stop-color="#00A0FF"/>
<stop offset="0.007" stop-color="#00A1FF"/>
<stop offset="0.26" stop-color="#00BEFF"/>
<stop offset="0.512" stop-color="#00D2FF"/>
<stop offset="0.76" stop-color="#00DFFF"/>
<stop offset="1" stop-color="#00E3FF"/>
</linearGradient>
<linearGradient id="paint1_linear_70_6" x1="239.946" y1="256.404" x2="-3.4238" y2="256.404" gradientUnits="userSpaceOnUse">
<stop stop-color="#FFE000"/>
<stop offset="0.409" stop-color="#FFBD00"/>
<stop offset="0.775" stop-color="#FFA500"/>
<stop offset="1" stop-color="#FF9C00"/>
</linearGradient>
<linearGradient id="paint2_linear_70_6" x1="149.349" y1="302.105" x2="-207.005" y2="605.2" gradientUnits="userSpaceOnUse">
<stop stop-color="#FF3A44"/>
<stop offset="1" stop-color="#C31162"/>
</linearGradient>
<linearGradient id="paint3_linear_70_6" x1="-26.9832" y1="-138.114" x2="132.108" y2="-2.65226" gradientUnits="userSpaceOnUse">
<stop stop-color="#32A071"/>
<stop offset="0.069" stop-color="#2DA771"/>
<stop offset="0.476" stop-color="#15CF74"/>
<stop offset="0.801" stop-color="#06E775"/>
<stop offset="1" stop-color="#00F076"/>
</linearGradient>
</defs>
</svg>
