<svg width="145" height="27" viewBox="0 0 145 27" fill="none" xmlns="http://www.w3.org/2000/svg">
<g filter="url(#filter0_d_68_3)">
<path d="M4.15909 2.42045V0.545454H17.25V2.42045H11.7614V18H9.64773V2.42045H4.15909ZM22.3104 18.3068C21.4808 18.3068 20.728 18.1506 20.0518 17.8381C19.3757 17.5199 18.8388 17.0625 18.4411 16.4659C18.0433 15.8636 17.8445 15.1364 17.8445 14.2841C17.8445 13.5341 17.9922 12.9261 18.2876 12.4602C18.5831 11.9886 18.978 11.6193 19.4723 11.3523C19.9666 11.0852 20.5121 10.8864 21.1087 10.7557C21.7109 10.6193 22.3161 10.5114 22.924 10.4318C23.7195 10.3295 24.3643 10.2528 24.8587 10.2017C25.3587 10.1449 25.7223 10.0511 25.9496 9.92045C26.1825 9.78977 26.299 9.5625 26.299 9.23864V9.17045C26.299 8.32955 26.0689 7.67614 25.6087 7.21023C25.1541 6.74432 24.4638 6.51136 23.5376 6.51136C22.5774 6.51136 21.8246 6.72159 21.2791 7.14205C20.7337 7.5625 20.3501 8.01136 20.1286 8.48864L18.2195 7.80682C18.5604 7.01136 19.0149 6.39205 19.5831 5.94886C20.157 5.5 20.782 5.1875 21.4581 5.01136C22.1399 4.82955 22.8104 4.73864 23.4695 4.73864C23.8899 4.73864 24.3729 4.78977 24.9183 4.89204C25.4695 4.98864 26.0007 5.19034 26.5121 5.49716C27.0291 5.80398 27.4581 6.26705 27.799 6.88636C28.1399 7.50568 28.3104 8.33523 28.3104 9.375V18H26.299V16.2273H26.1967C26.0604 16.5114 25.8331 16.8153 25.5149 17.1392C25.1967 17.4631 24.7734 17.7386 24.245 17.9659C23.7166 18.1932 23.0717 18.3068 22.3104 18.3068ZM22.6172 16.5C23.4126 16.5 24.0831 16.3438 24.6286 16.0312C25.1797 15.7188 25.5945 15.3153 25.8729 14.821C26.157 14.3267 26.299 13.8068 26.299 13.2614V11.4205C26.2138 11.5227 26.0263 11.6165 25.7365 11.7017C25.4524 11.7812 25.1229 11.8523 24.7479 11.9148C24.3786 11.9716 24.0178 12.0227 23.6655 12.0682C23.3189 12.108 23.0376 12.142 22.8217 12.1705C22.299 12.2386 21.8104 12.3494 21.3558 12.5028C20.907 12.6506 20.5433 12.875 20.2649 13.1761C19.9922 13.4716 19.8558 13.875 19.8558 14.3864C19.8558 15.0852 20.1143 15.6136 20.6314 15.9716C21.1541 16.3239 21.8161 16.5 22.6172 16.5ZM41.2543 7.84091L39.4474 8.35227C39.3338 8.05114 39.1662 7.75852 38.9446 7.47443C38.7287 7.18466 38.4332 6.94602 38.0582 6.75852C37.6832 6.57102 37.2031 6.47727 36.6179 6.47727C35.8168 6.47727 35.1491 6.66193 34.6151 7.03125C34.0866 7.39489 33.8224 7.85795 33.8224 8.42045C33.8224 8.92045 34.0043 9.31534 34.3679 9.60511C34.7315 9.89489 35.2997 10.1364 36.0724 10.3295L38.0156 10.8068C39.1861 11.0909 40.0582 11.5256 40.6321 12.1108C41.206 12.6903 41.4929 13.4375 41.4929 14.3523C41.4929 15.1023 41.277 15.7727 40.8452 16.3636C40.419 16.9545 39.8224 17.4205 39.0554 17.7614C38.2884 18.1023 37.3963 18.2727 36.3793 18.2727C35.044 18.2727 33.9389 17.983 33.0639 17.4034C32.1889 16.8239 31.6349 15.9773 31.402 14.8636L33.3111 14.3864C33.4929 15.0909 33.8366 15.6193 34.3423 15.9716C34.8537 16.3239 35.5213 16.5 36.3452 16.5C37.2827 16.5 38.027 16.3011 38.5781 15.9034C39.1349 15.5 39.4134 15.017 39.4134 14.4545C39.4134 14 39.2543 13.6193 38.9361 13.3125C38.6179 13 38.1293 12.767 37.4702 12.6136L35.2884 12.1023C34.0895 11.8182 33.2088 11.3778 32.6463 10.7812C32.0895 10.179 31.8111 9.42614 31.8111 8.52273C31.8111 7.78409 32.0185 7.13068 32.4332 6.5625C32.8537 5.99432 33.4247 5.5483 34.1463 5.22443C34.8736 4.90057 35.6974 4.73864 36.6179 4.73864C37.9134 4.73864 38.9304 5.02273 39.669 5.59091C40.4134 6.15909 40.9418 6.90909 41.2543 7.84091ZM46.3956 13.2273L46.3615 10.7386H46.7706L52.4979 4.90909H54.9865L48.8842 11.0795H48.7138L46.3956 13.2273ZM44.5206 18V0.545454H46.532V18H44.5206ZM52.8388 18L47.7251 11.5227L49.157 10.125L55.3956 18H52.8388ZM55.5341 2.42045V0.545454H68.625V2.42045H63.1364V18H61.0227V2.42045H55.5341ZM70.255 18V4.90909H72.1982V6.88636H72.3345C72.5732 6.23864 73.005 5.71307 73.63 5.30966C74.255 4.90625 74.9595 4.70454 75.7436 4.70454C75.8913 4.70454 76.076 4.70739 76.2976 4.71307C76.5192 4.71875 76.6868 4.72727 76.8004 4.73864V6.78409C76.7322 6.76705 76.576 6.74148 76.3317 6.70739C76.093 6.66761 75.8402 6.64773 75.5732 6.64773C74.9368 6.64773 74.3686 6.78125 73.8686 7.0483C73.3743 7.30966 72.9822 7.6733 72.6925 8.1392C72.4084 8.59943 72.2663 9.125 72.2663 9.71591V18H70.255ZM83.0369 18.3068C82.2074 18.3068 81.4545 18.1506 80.7784 17.8381C80.1023 17.5199 79.5653 17.0625 79.1676 16.4659C78.7699 15.8636 78.571 15.1364 78.571 14.2841C78.571 13.5341 78.7188 12.9261 79.0142 12.4602C79.3097 11.9886 79.7045 11.6193 80.1989 11.3523C80.6932 11.0852 81.2386 10.8864 81.8352 10.7557C82.4375 10.6193 83.0426 10.5114 83.6506 10.4318C84.446 10.3295 85.0909 10.2528 85.5852 10.2017C86.0852 10.1449 86.4489 10.0511 86.6761 9.92045C86.9091 9.78977 87.0256 9.5625 87.0256 9.23864V9.17045C87.0256 8.32955 86.7955 7.67614 86.3352 7.21023C85.8807 6.74432 85.1903 6.51136 84.2642 6.51136C83.304 6.51136 82.5511 6.72159 82.0057 7.14205C81.4602 7.5625 81.0767 8.01136 80.8551 8.48864L78.946 7.80682C79.2869 7.01136 79.7415 6.39205 80.3097 5.94886C80.8835 5.5 81.5085 5.1875 82.1847 5.01136C82.8665 4.82955 83.5369 4.73864 84.196 4.73864C84.6165 4.73864 85.0994 4.78977 85.6449 4.89204C86.196 4.98864 86.7273 5.19034 87.2386 5.49716C87.7557 5.80398 88.1847 6.26705 88.5256 6.88636C88.8665 7.50568 89.0369 8.33523 89.0369 9.375V18H87.0256V16.2273H86.9233C86.7869 16.5114 86.5597 16.8153 86.2415 17.1392C85.9233 17.4631 85.5 17.7386 84.9716 17.9659C84.4432 18.1932 83.7983 18.3068 83.0369 18.3068ZM83.3438 16.5C84.1392 16.5 84.8097 16.3438 85.3551 16.0312C85.9063 15.7188 86.321 15.3153 86.5994 14.821C86.8835 14.3267 87.0256 13.8068 87.0256 13.2614V11.4205C86.9403 11.5227 86.7528 11.6165 86.4631 11.7017C86.179 11.7812 85.8494 11.8523 85.4744 11.9148C85.1051 11.9716 84.7443 12.0227 84.392 12.0682C84.0455 12.108 83.7642 12.142 83.5483 12.1705C83.0256 12.2386 82.5369 12.3494 82.0824 12.5028C81.6335 12.6506 81.2699 12.875 80.9915 13.1761C80.7188 13.4716 80.5824 13.875 80.5824 14.3864C80.5824 15.0852 80.8409 15.6136 81.358 15.9716C81.8807 16.3239 82.5426 16.5 83.3438 16.5ZM98.0263 18.2727C96.799 18.2727 95.7422 17.983 94.8558 17.4034C93.9695 16.8239 93.2876 16.0256 92.8104 15.0085C92.3331 13.9915 92.0945 12.8295 92.0945 11.5227C92.0945 10.1932 92.3388 9.01989 92.8274 8.00284C93.3217 6.98011 94.0092 6.18182 94.8899 5.60795C95.7763 5.02841 96.8104 4.73864 97.9922 4.73864C98.9126 4.73864 99.7422 4.90909 100.481 5.25C101.219 5.59091 101.825 6.06818 102.296 6.68182C102.768 7.29545 103.06 8.01136 103.174 8.82955H101.163C101.009 8.23295 100.668 7.70455 100.14 7.24432C99.6172 6.77841 98.9126 6.54545 98.0263 6.54545C97.2422 6.54545 96.5547 6.75 95.9638 7.15909C95.3786 7.5625 94.9212 8.13352 94.5916 8.87216C94.2678 9.60511 94.1058 10.4659 94.1058 11.4545C94.1058 12.4659 94.2649 13.3466 94.5831 14.0966C94.907 14.8466 95.3615 15.429 95.9467 15.8438C96.5376 16.2585 97.2308 16.4659 98.0263 16.4659C98.549 16.4659 99.0234 16.375 99.4496 16.1932C99.8757 16.0114 100.237 15.75 100.532 15.4091C100.827 15.0682 101.038 14.6591 101.163 14.1818H103.174C103.06 14.9545 102.779 15.6506 102.33 16.2699C101.887 16.8835 101.299 17.3722 100.566 17.7358C99.8388 18.0938 98.9922 18.2727 98.0263 18.2727ZM108.126 10.125V18H106.114V0.545454H108.126V6.95455H108.296C108.603 6.27841 109.063 5.74148 109.677 5.34375C110.296 4.94034 111.12 4.73864 112.148 4.73864C113.04 4.73864 113.822 4.91761 114.492 5.27557C115.163 5.62784 115.683 6.17045 116.052 6.90341C116.427 7.63068 116.614 8.55682 116.614 9.68182V18H114.603V9.81818C114.603 8.77841 114.333 7.97443 113.793 7.40625C113.259 6.83239 112.518 6.54545 111.569 6.54545C110.91 6.54545 110.319 6.68466 109.796 6.96307C109.279 7.24148 108.87 7.64773 108.569 8.18182C108.273 8.71591 108.126 9.36364 108.126 10.125ZM125.783 18.2727C124.521 18.2727 123.433 17.9943 122.518 17.4375C121.609 16.875 120.908 16.0909 120.413 15.0852C119.925 14.0739 119.68 12.8977 119.68 11.5568C119.68 10.2159 119.925 9.03409 120.413 8.01136C120.908 6.98295 121.595 6.18182 122.476 5.60795C123.362 5.02841 124.396 4.73864 125.578 4.73864C126.26 4.73864 126.933 4.85227 127.598 5.07954C128.263 5.30682 128.868 5.67614 129.413 6.1875C129.959 6.69318 130.393 7.36364 130.717 8.19886C131.041 9.03409 131.203 10.0625 131.203 11.2841V12.1364H121.112V10.3977H129.158C129.158 9.65909 129.01 9 128.714 8.42045C128.425 7.84091 128.01 7.38352 127.47 7.0483C126.936 6.71307 126.305 6.54545 125.578 6.54545C124.777 6.54545 124.084 6.74432 123.499 7.14205C122.919 7.53409 122.473 8.04545 122.161 8.67614C121.848 9.30682 121.692 9.98295 121.692 10.7045V11.8636C121.692 12.8523 121.862 13.6903 122.203 14.3778C122.55 15.0597 123.03 15.5795 123.643 15.9375C124.257 16.2898 124.97 16.4659 125.783 16.4659C126.311 16.4659 126.788 16.392 127.214 16.2443C127.646 16.0909 128.018 15.8636 128.331 15.5625C128.643 15.2557 128.885 14.875 129.055 14.4205L130.999 14.9659C130.794 15.625 130.45 16.2045 129.967 16.7045C129.484 17.1989 128.888 17.5852 128.178 17.8636C127.467 18.1364 126.669 18.2727 125.783 18.2727ZM134.263 18V4.90909H136.206V6.88636H136.342C136.581 6.23864 137.013 5.71307 137.638 5.30966C138.263 4.90625 138.967 4.70454 139.751 4.70454C139.899 4.70454 140.084 4.70739 140.305 4.71307C140.527 4.71875 140.695 4.72727 140.808 4.73864V6.78409C140.74 6.76705 140.584 6.74148 140.339 6.70739C140.101 6.66761 139.848 6.64773 139.581 6.64773C138.945 6.64773 138.376 6.78125 137.876 7.0483C137.382 7.30966 136.99 7.6733 136.7 8.1392C136.416 8.59943 136.274 9.125 136.274 9.71591V18H134.263Z" fill="black"/>
</g>
<defs>
<filter id="filter0_d_68_3" x="0.15918" y="0.546875" width="144.649" height="25.7617" filterUnits="userSpaceOnUse" color-interpolation-filters="sRGB">
<feFlood flood-opacity="0" result="BackgroundImageFix"/>
<feColorMatrix in="SourceAlpha" type="matrix" values="0 0 0 0 0 0 0 0 0 0 0 0 0 0 0 0 0 0 127 0" result="hardAlpha"/>
<feOffset dy="4"/>
<feGaussianBlur stdDeviation="2"/>
<feComposite in2="hardAlpha" operator="out"/>
<feColorMatrix type="matrix" values="0 0 0 0 0 0 0 0 0 0 0 0 0 0 0 0 0 0 0.25 0"/>
<feBlend mode="normal" in2="BackgroundImageFix" result="effect1_dropShadow_68_3"/>
<feBlend mode="normal" in="SourceGraphic" in2="effect1_dropShadow_68_3" result="shape"/>
</filter>
</defs>
</svg>
